<?xml version="1.0" standalone="no"?>
<!DOCTYPE svg PUBLIC "-//W3C//DTD SVG 20010904//EN"
 "http://www.w3.org/TR/2001/REC-SVG-20010904/DTD/svg10.dtd">
<svg version="1.0" xmlns="http://www.w3.org/2000/svg"
 width="2100.000000pt" height="2100.000000pt" viewBox="0 0 2100.000000 2100.000000"
 preserveAspectRatio="xMidYMid meet">
<metadata>
Created by potrace 1.14, written by Peter Selinger 2001-2017
</metadata>
<g transform="translate(0.000000,2100.000000) scale(0.100000,-0.100000)"
fill="#000000" stroke="none">
<path d="M9965 20610 c-2268 -131 -4370 -975 -6065 -2435 -2012 -1732 -3255
-4160 -3485 -6805 -48 -553 -48 -1187 0 -1740 180 -2069 980 -4016 2301 -5600
391 -469 845 -923 1314 -1314 1471 -1227 3262 -2008 5175 -2255 483 -63 911
-86 1450 -78 407 6 516 12 870 47 1998 200 3903 999 5445 2286 468 390 924
846 1314 1314 1321 1583 2122 3534 2301 5600 48 555 48 1185 0 1740 -179 2066
-980 4017 -2301 5600 -1392 1669 -3251 2836 -5345 3355 -558 138 -1092 222
-1749 276 -174 14 -1030 20 -1225 9z m-4359 -2440 c673 -53 1400 -269 2106
-626 453 -230 753 -435 976 -669 268 -281 378 -559 352 -890 -14 -169 -41
-254 -203 -645 -113 -274 -170 -436 -247 -705 -394 -1373 -804 -3988 -965
-6160 -81 -1102 -93 -1879 -35 -2332 111 -864 468 -1432 1097 -1747 449 -224
1087 -319 1853 -276 1680 96 3445 751 5091 1890 642 445 1073 842 1866 1722
119 131 221 237 228 235 25 -10 175 -121 175 -129 0 -6 -37 -75 -81 -155 -45
-80 -109 -205 -144 -277 -114 -242 -531 -1026 -683 -1286 -167 -287 -343 -534
-657 -925 -238 -295 -366 -437 -679 -751 -458 -457 -821 -758 -1321 -1093
-929 -623 -1946 -1035 -2965 -1201 -391 -63 -655 -84 -1060 -84 -412 0 -714
27 -1054 95 -1345 266 -2318 1038 -2784 2209 -316 795 -452 1878 -452 3615 0
999 29 1741 195 4995 102 2012 117 2843 60 3310 -76 621 -287 988 -748 1301
-156 107 -377 228 -580 319 -190 85 -186 72 -48 147 204 112 374 139 707 113z"/>
</g>
</svg>
